<svg width="24" height="24" viewBox="0 0 24 24" fill="none" xmlns="http://www.w3.org/2000/svg">
<path fill-rule="evenodd" clip-rule="evenodd" d="M14.8571 9.5C14.8571 12.4587 12.4587 14.8571 9.5 14.8571C6.54133 14.8571 4.14286 12.4587 4.14286 9.5C4.14286 6.54133 6.54133 4.14286 9.5 4.14286C12.4587 4.14286 14.8571 6.54133 14.8571 9.5ZM15.4545 14.0607C16.4238 12.797 17 11.2158 17 9.5C17 5.35786 13.6421 2 9.5 2C5.35786 2 2 5.35786 2 9.5C2 13.6421 5.35786 17 9.5 17C11.2159 17 12.7972 16.4238 14.061 15.4543C14.0935 15.5004 14.1305 15.5445 14.1718 15.5858L19.3855 20.7995C19.7761 21.1901 20.4092 21.1901 20.7997 20.7995C21.1903 20.409 21.1903 19.7758 20.7997 19.3853L15.586 14.1716C15.5447 14.1303 15.5006 14.0933 15.4545 14.0607Z" fill="#AAAAAA"/>
</svg>
